<mxfile host="app.diagrams.net" modified="2022-10-10T06:32:21.328Z" agent="5.0 (Macintosh; Intel Mac OS X 10_15_7) AppleWebKit/537.36 (KHTML, like Gecko) Chrome/105.0.0.0 Safari/537.36" etag="K6taP4x1arxY2eN-ngR7" version="20.4.0" type="github">
  <diagram id="vy0jo_7U0iQDIroymy1A" name="Page-1">
    <mxGraphModel dx="1426" dy="794" grid="1" gridSize="10" guides="1" tooltips="1" connect="1" arrows="1" fold="1" page="1" pageScale="1" pageWidth="850" pageHeight="1100" math="0" shadow="0">
      <root>
        <mxCell id="0" />
        <mxCell id="1" parent="0" />
        <mxCell id="rveXuouI65hhvx1mZ-Yz-1" value="&lt;font style=&quot;font-size: 18px;&quot;&gt;root&lt;/font&gt;" style="rounded=1;whiteSpace=wrap;html=1;fillColor=#f8cecc;strokeColor=#b85450;" vertex="1" parent="1">
          <mxGeometry x="360" y="420" width="90" height="40" as="geometry" />
        </mxCell>
        <mxCell id="rveXuouI65hhvx1mZ-Yz-2" value="&lt;span style=&quot;font-size: 18px;&quot;&gt;b1&lt;/span&gt;" style="rounded=1;whiteSpace=wrap;html=1;fillColor=#f5f5f5;fontColor=#333333;strokeColor=#666666;" vertex="1" parent="1">
          <mxGeometry x="420" y="330" width="90" height="40" as="geometry" />
        </mxCell>
        <mxCell id="rveXuouI65hhvx1mZ-Yz-3" value="&lt;font style=&quot;font-size: 18px;&quot;&gt;a1&lt;/font&gt;" style="rounded=1;whiteSpace=wrap;html=1;fillColor=#dae8fc;strokeColor=#6c8ebf;" vertex="1" parent="1">
          <mxGeometry x="280" y="330" width="90" height="40" as="geometry" />
        </mxCell>
        <mxCell id="rveXuouI65hhvx1mZ-Yz-4" value="&lt;font style=&quot;font-size: 18px;&quot;&gt;b2&lt;/font&gt;" style="rounded=1;whiteSpace=wrap;html=1;fillColor=#f5f5f5;fontColor=#333333;strokeColor=#666666;" vertex="1" parent="1">
          <mxGeometry x="420" y="240" width="90" height="40" as="geometry" />
        </mxCell>
        <mxCell id="rveXuouI65hhvx1mZ-Yz-5" value="" style="endArrow=classic;html=1;rounded=0;fontSize=18;strokeWidth=2;dashed=1;exitX=0.5;exitY=1;exitDx=0;exitDy=0;entryX=0.5;entryY=0;entryDx=0;entryDy=0;" edge="1" parent="1" source="rveXuouI65hhvx1mZ-Yz-2" target="rveXuouI65hhvx1mZ-Yz-1">
          <mxGeometry width="50" height="50" relative="1" as="geometry">
            <mxPoint x="400" y="430" as="sourcePoint" />
            <mxPoint x="450" y="380" as="targetPoint" />
          </mxGeometry>
        </mxCell>
        <mxCell id="rveXuouI65hhvx1mZ-Yz-6" value="" style="endArrow=classic;html=1;rounded=0;fontSize=18;strokeWidth=2;dashed=1;exitX=0.5;exitY=1;exitDx=0;exitDy=0;entryX=0.5;entryY=0;entryDx=0;entryDy=0;" edge="1" parent="1" source="rveXuouI65hhvx1mZ-Yz-4" target="rveXuouI65hhvx1mZ-Yz-2">
          <mxGeometry width="50" height="50" relative="1" as="geometry">
            <mxPoint x="475" y="380" as="sourcePoint" />
            <mxPoint x="415" y="430" as="targetPoint" />
          </mxGeometry>
        </mxCell>
        <mxCell id="rveXuouI65hhvx1mZ-Yz-7" value="" style="endArrow=classic;html=1;rounded=0;fontSize=18;strokeWidth=2;dashed=1;exitX=0.5;exitY=1;exitDx=0;exitDy=0;entryX=0.5;entryY=0;entryDx=0;entryDy=0;" edge="1" parent="1" source="rveXuouI65hhvx1mZ-Yz-3" target="rveXuouI65hhvx1mZ-Yz-1">
          <mxGeometry width="50" height="50" relative="1" as="geometry">
            <mxPoint x="505" y="300" as="sourcePoint" />
            <mxPoint x="475" y="340" as="targetPoint" />
          </mxGeometry>
        </mxCell>
      </root>
    </mxGraphModel>
  </diagram>
</mxfile>
